<?xml version="1.0" encoding="UTF-8"?><svg id="Layer_4" xmlns="http://www.w3.org/2000/svg" viewBox="0 0 183.68 184.08"><defs><style>.cls-1{fill:#040300;}.cls-2{fill:#040302;}.cls-3{fill:#ebbd00;}.cls-4{fill:#fdfdfd;}.cls-5{fill:#e98600;}.cls-6{fill:#494949;}.cls-7{fill:#fdcc00;}.cls-8{fill:#eb8700;}.cls-9{fill:#fcfcfc;}</style></defs><path class="cls-6" d="M183.68,99.39c-.32,1.89-.65,3.79-.97,5.68-6.12,35.52-25.81,60.68-59.57,72.9-34.63,12.53-66.56,5.6-94.04-19.12-14.79-13.3-24.11-30.1-27.47-49.72C-4.26,74.76,5.84,45.62,31.87,22.33,45.4,10.23,61.49,3.34,79.46,.81,81.06,.58,82.66,.27,84.26,0c.6,0,1.2,0,1.79,0h11.49c.36,0,.72,0,1.08,0,1.9,.28,3.8,.57,5.7,.84,18.16,2.57,34.24,9.77,47.98,21.93,17.52,15.51,27.84,34.9,30.72,58.18,.15,1.25,.45,2.49,.68,3.73v14.71Zm-90.46,78.43c7.4,.03,14.64-1.12,21.74-3.1,42.5-11.87,69.53-54.27,61.5-97.55-6.07-32.76-25.47-54.84-56.56-66.59-8.55-3.23-17.51-4.68-26.68-4.68-8.37-.31-16.57,.86-24.61,3.11C23.68,21.56-3.44,68.03,8.46,113.03c7.95,30.07,27.23,50.22,56.57,60.57,9.08,3.2,18.54,4.55,28.19,4.23Z"/><path class="cls-7" d="M93.22,177.82c-9.66,.32-19.11-1.03-28.19-4.23-29.34-10.35-48.62-30.49-56.57-60.57C-3.44,68.03,23.68,21.56,68.61,9c8.04-2.25,16.24-3.42,24.61-3.11,.2,.19,.37,.48,.61,.56,1.91,.66,3.85,1.24,5.75,1.93,11.45,4.2,21.53,10.62,30.45,18.89,6.73,6.25,12.15,13.55,16.67,21.52,3.8,6.71,6.54,13.88,8.5,21.34,.13,.49-.15,1.09-.24,1.64-3.46-4.15-7.33-7.86-11.96-10.69-7.17-4.38-14.91-6.94-23.38-6.86-5.08,.05-9.57,4.04-9.83,9.1-.19,3.78-.01,7.68,.74,11.37,4.02,19.76,13.97,35.83,30.45,47.67,2.87,2.06,5.92,3.87,9.69,3.68-.2,.73-.3,1.51-.62,2.19-3.1,6.65-6.92,12.85-11.4,18.69-5.91,7.7-13.06,14.02-21.07,19.33-7.17,4.76-14.9,8.47-23.23,10.84-.41,.12-.74,.48-1.11,.73Zm22.97-62.29c1.16-1.49,1.02-2.93-.04-4.43-1.35-1.9-2.74-3.78-3.91-5.78-7.32-12.47-12.14-25.53-9.35-40.36,.36-1.89-.14-3.57-1.84-4.71-1.77-1.18-3.52-.89-5.21,.15-13.74,8.51-21.36,20.88-22.25,36.94-.83,14.94,4.86,27.41,16.25,37.16,14.28,12.23,35.98,13.96,52.09,4.26,1.77-1.07,2.89-2.49,2.63-4.68-.24-2.04-1.54-3.21-3.37-3.76-5.53-1.67-10.31-4.62-14.74-8.26-1.95-1.6-2.69-1.61-4.83-.39-1.81-2.05-3.61-4.1-5.42-6.15Zm-67.93,18.83c.25,5.65,4.37,9.87,10.34,10.6,6.16,.75,12.32,1.61,18.47,2.41,4.97,.65,9.95,1.29,14.93,1.91,1.55,.19,2.77-.41,3.26-1.91,.52-1.57-.11-2.79-1.56-3.6-1.2-.67-2.45-1.26-3.58-2.03-12.48-8.5-19.75-20.49-23.07-34.99-.75-3.28-.75-6.74-1.01-10.13-.12-1.56-.73-2.67-2.31-2.97-1.65-.32-2.76,.47-3.37,2-.13,.33-.23,.68-.34,1.02-3.62,11.17-7.26,22.34-10.85,33.52-.43,1.35-.62,2.78-.92,4.17Zm-5.98-50.1c1.92-.39,3.91-.58,5.74-1.21,9.81-3.37,18.09-9.33,26.11-15.68,1.66-1.32,1.63-3.06,.05-4.67-6.67-6.8-13.72-13.15-21.98-17.99-3.11-1.82-6.38-3.29-10.1-3.24-11.56,.17-21,9.8-20.94,21.34,.06,11.6,9.52,21.12,21.12,21.44ZM87.63,23.29c-.05-.15-.1-.3-.16-.45-2.28,.78-4.71,1.29-6.81,2.41-5.01,2.67-7.72,8.98-6.95,13.47,1.16,6.82,3.91,12.97,6.98,19.04,.92,1.83,2.85,2.16,4.57,.8,3.75-2.94,7.51-5.9,11.05-9.08,2.48-2.23,4.71-4.81,5.61-8.16,2.48-9.16-4.79-18.29-14.3-18.03Z"/><path class="cls-3" d="M93.22,177.82c.37-.25,.71-.61,1.11-.73,8.33-2.37,16.06-6.08,23.23-10.84,8.01-5.31,15.16-11.63,21.07-19.33,4.48-5.84,8.3-12.04,11.4-18.69,.32-.68,.42-1.46,.62-2.19,4.12-.46,7.13-2.52,8.94-6.26,5.26-10.91,6.1-22.16,2.65-33.76-1.55-5.21-4.22-9.83-7.31-14.24,.09-.55,.37-1.15,.24-1.64-1.95-7.46-4.69-14.63-8.5-21.34-4.51-7.97-9.93-15.27-16.67-21.52-8.91-8.27-19-14.69-30.45-18.89-1.9-.7-3.84-1.27-5.75-1.93-.24-.08-.41-.37-.61-.56,9.17,0,18.14,1.45,26.68,4.68,31.09,11.75,50.49,33.83,56.56,66.59,8.03,43.29-19,85.69-61.5,97.55-7.11,1.98-14.34,3.13-21.74,3.1Z"/><path class="cls-8" d="M116.19,115.53c1.81,2.05,3.61,4.1,5.42,6.15-1.1,2.4-.91,3.2,1.17,4.92,3.79,3.14,7.85,5.84,12.42,7.72,.4,.16,.76,.43,1.22,.71-19.77,10.21-45.2,.85-53.88-19.56-8.76-20.62,1.96-41.47,14.1-48.28,0,4.28-.43,8.5,.08,12.6,1.62,12.91,7.07,24.3,14.71,34.72,1.45,1.98,2.51,2.16,4.76,1.02Z"/><path class="cls-1" d="M116.19,115.53c-2.25,1.15-3.31,.96-4.76-1.02-7.64-10.41-13.09-21.81-14.71-34.72-.51-4.1-.08-8.32-.08-12.6-12.13,6.8-22.86,27.66-14.1,48.28,8.67,20.41,34.11,29.77,53.88,19.56-.47-.27-.82-.54-1.22-.71-4.57-1.88-8.63-4.59-12.42-7.72-2.08-1.72-2.27-2.52-1.17-4.92,2.14-1.23,2.88-1.22,4.83,.39,4.42,3.63,9.21,6.59,14.74,8.26,1.83,.55,3.13,1.72,3.37,3.76,.26,2.19-.86,3.61-2.63,4.68-16.11,9.7-37.81,7.96-52.09-4.26-11.38-9.75-17.08-22.22-16.25-37.16,.89-16.06,8.52-28.43,22.25-36.94,1.69-1.05,3.44-1.33,5.21-.15,1.7,1.13,2.2,2.81,1.84,4.71-2.79,14.83,2.03,27.89,9.35,40.36,1.18,2,2.56,3.89,3.91,5.78,1.06,1.5,1.2,2.94,.04,4.43Z"/><path class="cls-1" d="M154.94,71.78c3.08,4.41,5.76,9.04,7.31,14.24,3.45,11.6,2.61,22.85-2.65,33.76-1.8,3.74-4.81,5.81-8.94,6.26-3.77,.19-6.82-1.62-9.69-3.68-16.48-11.83-26.43-27.91-30.45-47.67-.75-3.7-.93-7.6-.74-11.37,.26-5.06,4.75-9.06,9.83-9.1,8.46-.08,16.21,2.48,23.38,6.86,4.63,2.83,8.5,6.54,11.96,10.69Zm3.67,28.81c-.15-2.2-.21-4.42-.5-6.6-.24-1.83-.64-3.65-1.17-5.42-5-16.55-19.21-27.67-36.44-28.59-2.83-.15-5.11,1.76-5.08,4.58,.03,2.86,.17,5.75,.66,8.56,2.21,12.8,8.02,23.91,16.3,33.79,4.21,5.03,9.12,9.29,14.87,12.53,2.81,1.58,5.63,.79,6.98-1.95,2.62-5.32,4.11-10.93,4.39-16.89Z"/><path class="cls-1" d="M48.27,134.36c.3-1.39,.49-2.82,.92-4.17,3.59-11.18,7.22-22.35,10.85-33.52,.11-.34,.21-.69,.34-1.02,.61-1.53,1.72-2.32,3.37-2,1.57,.3,2.19,1.42,2.31,2.97,.27,3.38,.26,6.85,1.01,10.13,3.32,14.5,10.59,26.49,23.07,34.99,1.13,.77,2.38,1.37,3.58,2.03,1.45,.8,2.08,2.03,1.56,3.6-.49,1.49-1.71,2.1-3.26,1.91-4.98-.62-9.95-1.26-14.93-1.91-6.16-.8-12.31-1.66-18.47-2.41-5.97-.73-10.09-4.96-10.34-10.6Zm32.17,7.57c-11.91-13.83-11.88-13.42-18.74-31.64-2.51,7.91-5.02,15.55-7.34,23.24-.7,2.31,.97,4.77,3.38,5.32,1.97,.45,4.01,.63,6.02,.9,5.44,.72,10.88,1.42,16.69,2.18Z"/><path class="cls-2" d="M42.28,84.26c-11.6-.32-21.06-9.84-21.12-21.44-.06-11.55,9.38-21.18,20.94-21.34,3.72-.05,6.99,1.42,10.1,3.24,8.26,4.84,15.31,11.19,21.98,17.99,1.58,1.61,1.61,3.35-.05,4.67-8.02,6.35-16.3,12.31-26.11,15.68-1.84,.63-3.82,.82-5.74,1.21Zm25.8-19.45c-5.89-5.66-11.9-10.94-18.82-15.17-6.42-3.92-12.32-2.3-16.85,1.43-5.54,4.56-6.96,12.76-3.36,19.32,3.46,6.29,10.98,9.33,17.76,6.98,7.88-2.74,14.47-7.7,21.26-12.55Z"/><path class="cls-2" d="M87.63,23.29c9.51-.26,16.77,8.87,14.3,18.03-.91,3.35-3.14,5.93-5.61,8.16-3.54,3.19-7.3,6.14-11.05,9.08-1.72,1.35-3.64,1.02-4.57-.8-3.07-6.06-5.81-12.22-6.98-19.04-.76-4.49,1.95-10.8,6.95-13.47,2.1-1.12,4.53-1.62,6.81-2.41,.05,.15,.1,.3,.16,.45Zm-3.73,28.78c.28,.05,.55,.11,.83,.16,3.23-3.08,6.57-6.05,9.66-9.26,2.95-3.08,2.92-7.38,.26-10.73-2.41-3.03-6.8-4.05-10.35-2.42-3.59,1.65-5.64,5.23-4.64,9.06,1.17,4.46,2.81,8.8,4.24,13.19Z"/><path class="cls-8" d="M158.61,100.58c-.28,5.96-1.77,11.57-4.39,16.89-1.35,2.74-4.16,3.53-6.98,1.95-5.75-3.23-10.65-7.49-14.87-12.53-8.28-9.88-14.09-20.99-16.3-33.79-.48-2.81-.63-5.7-.66-8.56-.03-2.82,2.25-4.73,5.08-4.58,17.24,.92,31.44,12.05,36.44,28.59,.53,1.76,.93,3.59,1.17,5.42,.29,2.18,.34,4.4,.5,6.6Z"/><path class="cls-5" d="M80.43,141.93c-5.8-.76-11.25-1.46-16.69-2.18-2.01-.27-4.05-.45-6.02-.9-2.41-.55-4.08-3.01-3.38-5.32,2.32-7.7,4.83-15.34,7.34-23.24,6.87,18.22,6.83,17.81,18.74,31.64Z"/><path class="cls-4" d="M68.09,64.81c-6.8,4.85-13.39,9.81-21.26,12.55-6.79,2.36-14.3-.69-17.76-6.98-3.6-6.56-2.18-14.76,3.36-19.32,4.53-3.73,10.43-5.35,16.85-1.43,6.92,4.23,12.93,9.52,18.82,15.17Z"/><path class="cls-9" d="M83.9,52.07c-1.44-4.39-3.07-8.73-4.24-13.19-1.01-3.83,1.05-7.41,4.64-9.06,3.55-1.64,7.94-.61,10.35,2.42,2.67,3.35,2.7,7.65-.26,10.73-3.08,3.22-6.43,6.19-9.66,9.26-.28-.05-.55-.11-.83-.16Z"/></svg>