<?xml version="1.0" encoding="UTF-8"?><svg id="Layer_1" xmlns="http://www.w3.org/2000/svg" viewBox="0 0 99.48 27.21"><defs><style>.cls-1{fill:#e88724;}.cls-2{fill:#f4f4f4;}.cls-3{fill:#fff;}.cls-4{font-family:Biysk-Bold, Biysk;font-size:24.33px;}.cls-5{fill:#ea8824;}.cls-6{fill:#fdfeff;}.cls-7{fill:#fdcd08;}.cls-8{fill:#080806;}.cls-9{fill:#eabd1e;}.cls-10{fill:#060606;}</style></defs><text class="cls-4" transform="translate(31.21 21.55)"><tspan class="cls-5" x="0" y="0">B</tspan><tspan class="cls-2" x="12.43" y="0">movie</tspan></text><g><path class="cls-2" d="M27.16,14.69c-.05,.28-.1,.56-.14,.84-.9,5.25-3.82,8.97-8.81,10.78-5.12,1.85-9.84,.83-13.9-2.83-2.19-1.97-3.56-4.45-4.06-7.35C-.63,11.05,.86,6.74,4.71,3.3,6.71,1.51,9.09,.49,11.75,.12,11.98,.09,12.22,.04,12.46,0c.09,0,.18,0,.27,0h1.7c.05,0,.11,0,.16,0,.28,.04,.56,.08,.84,.12,2.68,.38,5.06,1.44,7.09,3.24,2.59,2.29,4.12,5.16,4.54,8.6,.02,.19,.07,.37,.1,.55v2.17Zm-13.37,11.59c1.09,0,2.16-.16,3.21-.46,6.28-1.75,10.28-8.02,9.09-14.42-.9-4.84-3.77-8.11-8.36-9.84-1.26-.48-2.59-.69-3.94-.69-1.24-.05-2.45,.13-3.64,.46C3.5,3.19-.51,10.06,1.25,16.71c1.18,4.45,4.02,7.42,8.36,8.95,1.34,.47,2.74,.67,4.17,.63Z"/><path class="cls-7" d="M13.78,26.29c-1.43,.05-2.83-.15-4.17-.63-4.34-1.53-7.19-4.51-8.36-8.95C-.51,10.06,3.5,3.19,10.14,1.33c1.19-.33,2.4-.5,3.64-.46,.03,.03,.05,.07,.09,.08,.28,.1,.57,.18,.85,.29,1.69,.62,3.18,1.57,4.5,2.79,1,.92,1.8,2,2.46,3.18,.56,.99,.97,2.05,1.26,3.15,.02,.07-.02,.16-.04,.24-.51-.61-1.08-1.16-1.77-1.58-1.06-.65-2.2-1.03-3.46-1.01-.75,0-1.41,.6-1.45,1.35-.03,.56,0,1.14,.11,1.68,.59,2.92,2.07,5.3,4.5,7.05,.42,.3,.88,.57,1.43,.54-.03,.11-.05,.22-.09,.32-.46,.98-1.02,1.9-1.69,2.76-.87,1.14-1.93,2.07-3.11,2.86-1.06,.7-2.2,1.25-3.43,1.6-.06,.02-.11,.07-.16,.11Zm3.4-9.21c.17-.22,.15-.43,0-.65-.2-.28-.4-.56-.58-.85-1.08-1.84-1.79-3.77-1.38-5.97,.05-.28-.02-.53-.27-.7-.26-.17-.52-.13-.77,.02-2.03,1.26-3.16,3.09-3.29,5.46-.12,2.21,.72,4.05,2.4,5.49,2.11,1.81,5.32,2.06,7.7,.63,.26-.16,.43-.37,.39-.69-.04-.3-.23-.47-.5-.56-.82-.25-1.52-.68-2.18-1.22-.29-.24-.4-.24-.71-.06-.27-.3-.53-.61-.8-.91Zm-10.04,2.78c.04,.83,.65,1.46,1.53,1.57,.91,.11,1.82,.24,2.73,.36,.74,.1,1.47,.19,2.21,.28,.23,.03,.41-.06,.48-.28,.08-.23-.02-.41-.23-.53-.18-.1-.36-.19-.53-.3-1.84-1.26-2.92-3.03-3.41-5.17-.11-.49-.11-1-.15-1.5-.02-.23-.11-.4-.34-.44-.24-.05-.41,.07-.5,.3-.02,.05-.03,.1-.05,.15-.54,1.65-1.07,3.3-1.6,4.96-.06,.2-.09,.41-.14,.62Zm-.88-7.41c.28-.06,.58-.09,.85-.18,1.45-.5,2.67-1.38,3.86-2.32,.25-.19,.24-.45,0-.69-.99-1-2.03-1.94-3.25-2.66-.46-.27-.94-.49-1.49-.48-1.71,.02-3.11,1.45-3.1,3.16,0,1.72,1.41,3.12,3.12,3.17ZM12.96,3.44s-.02-.04-.02-.07c-.34,.12-.7,.19-1.01,.36-.74,.4-1.14,1.33-1.03,1.99,.17,1.01,.58,1.92,1.03,2.81,.14,.27,.42,.32,.68,.12,.55-.44,1.11-.87,1.63-1.34,.37-.33,.7-.71,.83-1.21,.37-1.35-.71-2.7-2.11-2.66Z"/><path class="cls-9" d="M13.78,26.29c.05-.04,.1-.09,.16-.11,1.23-.35,2.37-.9,3.43-1.6,1.18-.79,2.24-1.72,3.11-2.86,.66-.86,1.23-1.78,1.69-2.76,.05-.1,.06-.22,.09-.32,.61-.07,1.05-.37,1.32-.93,.78-1.61,.9-3.28,.39-4.99-.23-.77-.62-1.45-1.08-2.11,.01-.08,.05-.17,.04-.24-.29-1.1-.69-2.16-1.26-3.15-.67-1.18-1.47-2.26-2.46-3.18-1.32-1.22-2.81-2.17-4.5-2.79-.28-.1-.57-.19-.85-.29-.04-.01-.06-.05-.09-.08,1.36,0,2.68,.21,3.94,.69,4.6,1.74,7.46,5,8.36,9.84,1.19,6.4-2.81,12.67-9.09,14.42-1.05,.29-2.12,.46-3.21,.46Z"/><path class="cls-5" d="M17.18,17.08c.27,.3,.53,.61,.8,.91-.16,.35-.13,.47,.17,.73,.56,.46,1.16,.86,1.84,1.14,.06,.02,.11,.06,.18,.1-2.92,1.51-6.68,.13-7.97-2.89-1.3-3.05,.29-6.13,2.08-7.14,0,.63-.06,1.26,.01,1.86,.24,1.91,1.05,3.59,2.17,5.13,.21,.29,.37,.32,.7,.15Z"/><path class="cls-8" d="M17.18,17.08c-.33,.17-.49,.14-.7-.15-1.13-1.54-1.93-3.22-2.17-5.13-.08-.61-.01-1.23-.01-1.86-1.79,1.01-3.38,4.09-2.08,7.14,1.28,3.02,5.04,4.4,7.97,2.89-.07-.04-.12-.08-.18-.1-.68-.28-1.28-.68-1.84-1.14-.31-.25-.34-.37-.17-.73,.32-.18,.43-.18,.71,.06,.65,.54,1.36,.97,2.18,1.22,.27,.08,.46,.25,.5,.56,.04,.32-.13,.53-.39,.69-2.38,1.43-5.59,1.18-7.7-.63-1.68-1.44-2.52-3.28-2.4-5.49,.13-2.37,1.26-4.2,3.29-5.46,.25-.15,.51-.2,.77-.02,.25,.17,.33,.42,.27,.7-.41,2.19,.3,4.12,1.38,5.97,.17,.3,.38,.57,.58,.85,.16,.22,.18,.43,0,.65Z"/><path class="cls-8" d="M22.91,10.61c.46,.65,.85,1.34,1.08,2.11,.51,1.71,.39,3.38-.39,4.99-.27,.55-.71,.86-1.32,.93-.56,.03-1.01-.24-1.43-.54-2.44-1.75-3.91-4.13-4.5-7.05-.11-.55-.14-1.12-.11-1.68,.04-.75,.7-1.34,1.45-1.35,1.25-.01,2.4,.37,3.46,1.01,.68,.42,1.26,.97,1.77,1.58Zm.54,4.26c-.02-.33-.03-.65-.07-.98-.04-.27-.09-.54-.17-.8-.74-2.45-2.84-4.09-5.39-4.23-.42-.02-.76,.26-.75,.68,0,.42,.03,.85,.1,1.26,.33,1.89,1.19,3.54,2.41,5,.62,.74,1.35,1.37,2.2,1.85,.42,.23,.83,.12,1.03-.29,.39-.79,.61-1.62,.65-2.5Z"/><path class="cls-8" d="M7.14,19.86c.04-.21,.07-.42,.14-.62,.53-1.65,1.07-3.3,1.6-4.96,.02-.05,.03-.1,.05-.15,.09-.23,.25-.34,.5-.3,.23,.04,.32,.21,.34,.44,.04,.5,.04,1.01,.15,1.5,.49,2.14,1.57,3.92,3.41,5.17,.17,.11,.35,.2,.53,.3,.21,.12,.31,.3,.23,.53-.07,.22-.25,.31-.48,.28-.74-.09-1.47-.19-2.21-.28-.91-.12-1.82-.24-2.73-.36-.88-.11-1.49-.73-1.53-1.57Zm4.76,1.12c-1.76-2.04-1.76-1.98-2.77-4.68-.37,1.17-.74,2.3-1.09,3.44-.1,.34,.14,.7,.5,.79,.29,.07,.59,.09,.89,.13,.8,.11,1.61,.21,2.47,.32Z"/><path class="cls-10" d="M6.25,12.46c-1.72-.05-3.11-1.45-3.12-3.17,0-1.71,1.39-3.13,3.1-3.16,.55,0,1.03,.21,1.49,.48,1.22,.72,2.26,1.66,3.25,2.66,.23,.24,.24,.5,0,.69-1.19,.94-2.41,1.82-3.86,2.32-.27,.09-.57,.12-.85,.18Zm3.81-2.88c-.87-.84-1.76-1.62-2.78-2.24-.95-.58-1.82-.34-2.49,.21-.82,.67-1.03,1.89-.5,2.86,.51,.93,1.62,1.38,2.63,1.03,1.16-.4,2.14-1.14,3.14-1.85Z"/><path class="cls-10" d="M12.96,3.44c1.41-.04,2.48,1.31,2.11,2.66-.13,.5-.46,.88-.83,1.21-.52,.47-1.08,.91-1.63,1.34-.25,.2-.54,.15-.68-.12-.45-.9-.86-1.81-1.03-2.81-.11-.66,.29-1.6,1.03-1.99,.31-.17,.67-.24,1.01-.36,0,.02,.02,.04,.02,.07Zm-.55,4.25s.08,.02,.12,.02c.48-.45,.97-.89,1.43-1.37,.44-.46,.43-1.09,.04-1.59-.36-.45-1.01-.6-1.53-.36-.53,.24-.83,.77-.69,1.34,.17,.66,.42,1.3,.63,1.95Z"/><path class="cls-5" d="M23.45,14.87c-.04,.88-.26,1.71-.65,2.5-.2,.41-.62,.52-1.03,.29-.85-.48-1.58-1.11-2.2-1.85-1.22-1.46-2.08-3.1-2.41-5-.07-.42-.09-.84-.1-1.26,0-.42,.33-.7,.75-.68,2.55,.14,4.65,1.78,5.39,4.23,.08,.26,.14,.53,.17,.8,.04,.32,.05,.65,.07,.98Z"/><path class="cls-1" d="M11.89,20.98c-.86-.11-1.66-.22-2.47-.32-.3-.04-.6-.07-.89-.13-.36-.08-.6-.44-.5-.79,.34-1.14,.71-2.27,1.09-3.44,1.01,2.69,1.01,2.63,2.77,4.68Z"/><path class="cls-3" d="M10.07,9.58c-1,.72-1.98,1.45-3.14,1.85-1,.35-2.11-.1-2.63-1.03-.53-.97-.32-2.18,.5-2.86,.67-.55,1.54-.79,2.49-.21,1.02,.63,1.91,1.41,2.78,2.24Z"/><path class="cls-6" d="M12.4,7.7c-.21-.65-.45-1.29-.63-1.95-.15-.57,.16-1.1,.69-1.34,.53-.24,1.17-.09,1.53,.36,.39,.49,.4,1.13-.04,1.59-.46,.48-.95,.91-1.43,1.37-.04,0-.08-.02-.12-.02Z"/></g></svg>